<svg version="1.1" id="Layer_1" xmlns="http://www.w3.org/2000/svg" xmlns:xlink="http://www.w3.org/1999/xlink" x="0px" y="0px"
	 width="100%" viewBox="0 0 1067 683" enable-background="new 0 0 1067 683" xml:space="preserve">
<path fill="#FFDE2D" opacity="1.000000" stroke="none" 
	d="
M1068.000000,305.000000 
	C1068.000000,329.354218 1068.000000,353.708466 1067.661377,378.192719 
	C1066.892944,378.994507 1066.189575,379.622681 1066.074585,380.344543 
	C1064.667847,389.179688 1063.533936,398.061676 1061.968994,406.867493 
	C1057.594116,431.485870 1049.859619,455.110657 1039.517090,477.803772 
	C1031.184448,496.086761 1022.003052,514.055359 1009.859802,530.142212 
	C998.548157,545.127380 987.078125,560.132324 974.261780,573.800720 
	C962.822632,586.000366 949.770020,596.773926 936.847961,607.474609 
	C919.946777,621.470398 901.214172,632.840759 881.786804,642.992188 
	C860.539001,654.094849 838.337097,662.835083 815.251099,669.380188 
	C792.843933,675.732849 770.181641,680.544006 746.885986,682.077515 
	C745.886108,682.143433 744.960327,683.333557 744.000000,684.000000 
	C722.979126,684.000000 701.958191,684.000000 680.807983,683.654663 
	C680.004028,682.884277 679.365967,682.168701 678.649231,682.078369 
	C670.078613,680.999756 661.386230,680.566345 652.940796,678.884460 
	C637.123535,675.734680 621.185913,672.739319 605.784302,668.075134 
	C589.496338,663.142578 573.632751,656.685913 557.865112,650.209900 
	C549.879089,646.929993 542.513184,642.140320 535.103577,637.777405 
	C571.080750,617.395142 602.640259,592.088135 629.569946,561.119324 
	C684.593323,497.842987 712.235107,424.020264 712.627930,340.380066 
	C713.148254,229.582779 712.754578,118.781181 712.766235,7.981440 
	C712.766479,5.654285 712.918701,3.327147 713.000000,1.000000 
	C725.687561,1.000000 738.375122,1.000000 751.192688,1.338567 
	C754.912659,2.450104 758.485901,3.313178 762.095581,3.979667 
	C774.525574,6.274816 787.135315,7.839349 799.363098,10.924584 
	C814.031250,14.625544 828.557190,19.093977 842.822754,24.140129 
	C865.598877,32.196709 887.067505,43.139053 907.489563,56.039406 
	C932.868896,72.071243 956.327759,90.569138 976.316040,113.026314 
	C988.128357,126.297729 999.305359,140.201538 1009.930603,154.445724 
	C1023.237488,172.285156 1033.638916,191.936584 1041.995972,212.541611 
	C1047.500122,226.112411 1053.021606,239.825027 1056.686279,253.953751 
	C1060.865234,270.065826 1062.969238,286.714630 1066.074341,303.111328 
	C1066.211670,303.836456 1067.335571,304.374695 1068.000000,305.000000 
z"/>
<path fill="#327EFF" opacity="1.000000" stroke="none" 
	d="
M1.000004,379.000000 
	C1.000000,354.645782 1.000000,330.291534 1.376910,305.737732 
	C2.499242,302.098175 3.537472,298.692139 3.941023,295.212524 
	C6.046877,277.054779 10.420045,259.422394 15.955987,242.050491 
	C23.634462,217.955276 33.312088,194.688385 47.054665,173.415756 
	C57.199497,157.712204 67.746872,142.171799 79.353058,127.540886 
	C88.118881,116.490547 98.349304,106.449303 108.826172,96.949646 
	C120.571365,86.299965 132.994934,76.318024 145.722549,66.851135 
	C164.713928,52.725204 185.160446,40.816257 207.190033,32.110497 
	C225.707672,24.792614 244.401611,17.588158 263.567657,12.344226 
	C280.287903,7.769476 297.779694,6.021572 314.912598,2.925221 
	C315.698700,2.783152 316.308228,1.664053 317.000000,1.000002 
	C343.020905,1.000000 369.041779,1.000000 395.272369,1.383677 
	C396.493164,2.177093 397.470245,2.789306 398.520569,2.965899 
	C412.134003,5.254838 425.983154,6.586987 439.323212,9.946134 
	C456.847504,14.358891 474.286865,19.526491 491.175232,25.921156 
	C505.951508,31.516119 519.915466,39.256413 534.045410,46.348984 
	C527.935730,50.206226 521.947693,53.650730 516.114014,57.339317 
	C482.813171,78.395020 453.935883,104.391273 429.350006,135.175064 
	C401.889862,169.557755 381.820770,207.797806 369.519714,250.053848 
	C360.916229,279.608093 356.361481,309.717285 356.411743,340.601562 
	C356.594604,452.927551 356.486572,565.254028 356.463745,677.580322 
	C356.463287,679.720215 356.161316,681.860107 356.000000,684.000000 
	C345.979095,684.000000 335.958221,684.000000 325.716980,683.608643 
	C324.481354,682.812622 323.497803,682.188354 322.446075,682.036438 
	C308.239502,679.984558 293.908875,678.591370 279.833710,675.871948 
	C250.876297,670.277100 223.137131,660.619141 196.635666,647.779297 
	C174.785416,637.192932 154.098846,624.591858 134.891434,609.553040 
	C118.391350,596.634033 102.709221,582.993103 88.657867,567.360962 
	C75.932983,553.204590 64.245438,538.355225 53.896423,522.408569 
	C39.765640,500.634521 28.229179,477.570221 19.587959,453.096954 
	C11.336863,429.728485 5.362879,405.811798 2.917475,381.081177 
	C2.843352,380.331543 1.664050,379.691254 1.000004,379.000000 
z"/>
<path fill="#FF6446" opacity="1.000000" stroke="none" 
	d="
M356.468658,684.000000 
	C356.161316,681.860107 356.463287,679.720215 356.463745,677.580322 
	C356.486572,565.254028 356.594604,452.927551 356.411743,340.601562 
	C356.361481,309.717285 360.916229,279.608093 369.519714,250.053848 
	C381.820770,207.797806 401.889862,169.557755 429.350006,135.175064 
	C453.935883,104.391273 482.813171,78.395020 516.114014,57.339317 
	C521.947693,53.650730 527.935730,50.206226 534.344849,46.176922 
	C545.639099,40.454613 556.162903,34.495869 567.308838,30.122803 
	C583.399353,23.809784 599.664917,17.570791 616.365173,13.284906 
	C634.395996,8.657529 653.016235,6.331686 671.361877,2.907682 
	C672.004211,2.787792 672.458191,1.658720 673.000000,1.000004 
	C686.020874,1.000000 699.041809,1.000000 712.531372,1.000000 
	C712.918701,3.327147 712.766479,5.654285 712.766235,7.981440 
	C712.754578,118.781181 713.148254,229.582779 712.627930,340.380066 
	C712.235107,424.020264 684.593323,497.842987 629.569946,561.119324 
	C602.640259,592.088135 571.080750,617.395142 534.784790,637.899292 
	C533.163879,639.011719 532.177612,639.916626 531.020813,640.455017 
	C518.043396,646.495117 505.254181,653.011536 491.992249,658.351501 
	C472.703186,666.118225 452.847504,672.362000 432.313293,675.957581 
	C418.656494,678.348816 404.868774,679.988708 391.156830,682.077820 
	C390.358795,682.199402 389.715363,683.335815 389.000000,684.000000 
	C378.312439,684.000000 367.624878,684.000000 356.468658,684.000000 
M609.917847,278.164764 
	C609.600769,276.063110 609.283691,273.961456 608.804871,271.058929 
	C608.130493,270.678711 607.458374,269.972076 606.781311,269.967285 
	C596.783081,269.896881 586.781067,269.802155 576.788818,270.058533 
	C575.431885,270.093323 573.654358,271.725189 572.869019,273.079834 
	C568.277222,281.000671 563.893799,289.043243 559.494324,297.074524 
	C550.477539,313.534760 541.495239,330.013885 532.266785,346.909851 
	C531.355835,345.457794 530.608032,344.400299 529.995483,343.269531 
	C517.381836,319.983429 504.735931,296.714417 492.249451,273.360199 
	C490.868774,270.777802 489.328552,269.767334 486.446747,269.819031 
	C477.450134,269.980408 468.443085,270.104492 459.452637,269.830658 
	C455.096497,269.697998 454.122284,271.497803 454.145508,275.421661 
	C454.296539,300.918610 454.278778,326.416534 454.154907,352.629059 
	C454.198669,353.113098 454.242462,353.597107 454.257843,355.006866 
	C454.244324,375.313019 454.222778,395.619202 454.219543,415.925354 
	C454.216461,435.399323 453.790863,454.886993 454.395264,474.342438 
	C454.797302,487.282898 453.229370,484.482086 464.821442,484.778503 
	C467.316284,484.842316 469.814484,484.770996 472.311127,484.770416 
	C480.152771,484.768646 480.183441,484.770203 480.185730,476.815826 
	C480.202545,418.893372 480.206055,360.970917 480.500885,302.671844 
	C480.404266,302.097717 480.307617,301.523590 480.189209,300.337280 
	C480.195068,299.929016 480.200928,299.520782 480.749359,298.940002 
	C480.923065,298.863464 481.096771,298.786957 481.695709,299.265045 
	C498.273987,330.213470 514.852295,361.161896 531.839050,392.872833 
	C533.392029,390.348297 534.408630,388.861359 535.260742,387.285431 
	C547.197388,365.208862 559.056396,343.090057 571.061768,321.050995 
	C575.179504,313.491760 579.650024,306.124695 584.139099,299.660797 
	C584.190247,304.154480 584.284546,308.648132 584.286133,313.141815 
	C584.305237,369.400208 584.310913,425.658630 584.094971,482.522949 
	C584.410889,482.979858 584.726746,483.436737 585.968018,484.011139 
	C593.634521,483.959167 601.300964,483.907166 609.822571,483.882965 
	C610.207092,482.257812 610.926331,480.632996 610.927917,479.007446 
	C610.990295,413.848480 610.994751,348.689484 610.949036,283.530487 
	C610.947998,282.025024 610.285645,280.519989 609.917847,278.164764 
M610.460144,269.494476 
	C610.460144,269.494476 610.508972,269.474823 610.460144,269.494476 
z"/>
<path fill="#000000" opacity="0.000000" stroke="none" 
	d="
M744.468628,684.000000 
	C744.960327,683.333557 745.886108,682.143433 746.885986,682.077515 
	C770.181641,680.544006 792.843933,675.732849 815.251099,669.380188 
	C838.337097,662.835083 860.539001,654.094849 881.786804,642.992188 
	C901.214172,632.840759 919.946777,621.470398 936.847961,607.474609 
	C949.770020,596.773926 962.822632,586.000366 974.261780,573.800720 
	C987.078125,560.132324 998.548157,545.127380 1009.859802,530.142212 
	C1022.003052,514.055359 1031.184448,496.086761 1039.517090,477.803772 
	C1049.859619,455.110657 1057.594116,431.485870 1061.968994,406.867493 
	C1063.533936,398.061676 1064.667847,389.179688 1066.074585,380.344543 
	C1066.189575,379.622681 1066.892944,378.994507 1067.661377,378.661377 
	C1068.000000,480.595917 1068.000000,582.191833 1068.000000,684.000000 
	C960.312561,684.000000 852.624939,684.000000 744.468628,684.000000 
z"/>
<path fill="#000000" opacity="0.000000" stroke="none" 
	d="
M1.000004,379.468658 
	C1.664050,379.691254 2.843352,380.331543 2.917475,381.081177 
	C5.362879,405.811798 11.336863,429.728485 19.587959,453.096954 
	C28.229179,477.570221 39.765640,500.634521 53.896423,522.408569 
	C64.245438,538.355225 75.932983,553.204590 88.657867,567.360962 
	C102.709221,582.993103 118.391350,596.634033 134.891434,609.553040 
	C154.098846,624.591858 174.785416,637.192932 196.635666,647.779297 
	C223.137131,660.619141 250.876297,670.277100 279.833710,675.871948 
	C293.908875,678.591370 308.239502,679.984558 322.446075,682.036438 
	C323.497803,682.188354 324.481354,682.812622 325.248291,683.608643 
	C217.075134,684.000000 109.150269,684.000000 1.000000,684.000000 
	C1.000000,582.645874 1.000000,481.291595 1.000004,379.468658 
z"/>
<path fill="#000000" opacity="0.000000" stroke="none" 
	d="
M316.531342,1.000002 
	C316.308228,1.664053 315.698700,2.783152 314.912598,2.925221 
	C297.779694,6.021572 280.287903,7.769476 263.567657,12.344226 
	C244.401611,17.588158 225.707672,24.792614 207.190033,32.110497 
	C185.160446,40.816257 164.713928,52.725204 145.722549,66.851135 
	C132.994934,76.318024 120.571365,86.299965 108.826172,96.949646 
	C98.349304,106.449303 88.118881,116.490547 79.353058,127.540886 
	C67.746872,142.171799 57.199497,157.712204 47.054665,173.415756 
	C33.312088,194.688385 23.634462,217.955276 15.955987,242.050491 
	C10.420045,259.422394 6.046877,277.054779 3.941023,295.212524 
	C3.537472,298.692139 2.499242,302.098175 1.376910,305.269073 
	C1.000000,203.738190 1.000000,102.476379 1.000000,1.000000 
	C106.020798,1.000000 211.041733,1.000000 316.531342,1.000002 
z"/>
<path fill="#000000" opacity="0.000000" stroke="none" 
	d="
M1068.000000,304.531342 
	C1067.335571,304.374695 1066.211670,303.836456 1066.074341,303.111328 
	C1062.969238,286.714630 1060.865234,270.065826 1056.686279,253.953751 
	C1053.021606,239.825027 1047.500122,226.112411 1041.995972,212.541611 
	C1033.638916,191.936584 1023.237488,172.285156 1009.930603,154.445724 
	C999.305359,140.201538 988.128357,126.297729 976.316040,113.026314 
	C956.327759,90.569138 932.868896,72.071243 907.489563,56.039406 
	C887.067505,43.139053 865.598877,32.196709 842.822754,24.140129 
	C828.557190,19.093977 814.031250,14.625544 799.363098,10.924584 
	C787.135315,7.839349 774.525574,6.274816 762.095581,3.979667 
	C758.485901,3.313178 754.912659,2.450104 751.661377,1.338567 
	C857.258972,1.000000 962.517883,1.000000 1068.000000,1.000000 
	C1068.000000,102.020782 1068.000000,203.041733 1068.000000,304.531342 
z"/>
<path fill="#000000" opacity="0.000000" stroke="none" 
	d="
M389.468658,684.000000 
	C389.715363,683.335815 390.358795,682.199402 391.156830,682.077820 
	C404.868774,679.988708 418.656494,678.348816 432.313293,675.957581 
	C452.847504,672.362000 472.703186,666.118225 491.992249,658.351501 
	C505.254181,653.011536 518.043396,646.495117 531.020813,640.455017 
	C532.177612,639.916626 533.163879,639.011719 534.548096,638.155151 
	C542.513184,642.140320 549.879089,646.929993 557.865112,650.209900 
	C573.632751,656.685913 589.496338,663.142578 605.784302,668.075134 
	C621.185913,672.739319 637.123535,675.734680 652.940796,678.884460 
	C661.386230,680.566345 670.078613,680.999756 678.649231,682.078369 
	C679.365967,682.168701 680.004028,682.884277 680.339355,683.654663 
	C583.312439,684.000000 486.624878,684.000000 389.468658,684.000000 
z"/>
<path fill="#000000" opacity="0.000000" stroke="none" 
	d="
M672.531372,1.000004 
	C672.458191,1.658720 672.004211,2.787792 671.361877,2.907682 
	C653.016235,6.331686 634.395996,8.657529 616.365173,13.284906 
	C599.664917,17.570791 583.399353,23.809784 567.308838,30.122803 
	C556.162903,34.495869 545.639099,40.454613 534.537781,45.876915 
	C519.915466,39.256413 505.951508,31.516119 491.175232,25.921156 
	C474.286865,19.526491 456.847504,14.358891 439.323212,9.946134 
	C425.983154,6.586987 412.134003,5.254838 398.520569,2.965899 
	C397.470245,2.789306 396.493164,2.177093 395.741028,1.383677 
	C488.020905,1.000000 580.041809,1.000000 672.531372,1.000004 
z"/>
<path fill="#FFE32A" opacity="1.000000" stroke="none" 
	d="
M454.316284,351.914154 
	C454.278778,326.416534 454.296539,300.918610 454.145508,275.421661 
	C454.122284,271.497803 455.096497,269.697998 459.452637,269.830658 
	C468.443085,270.104492 477.450134,269.980408 486.446747,269.819031 
	C489.328552,269.767334 490.868774,270.777802 492.249451,273.360199 
	C504.735931,296.714417 517.381836,319.983429 529.995483,343.269531 
	C530.608032,344.400299 531.355835,345.457794 532.266785,346.909851 
	C541.495239,330.013885 550.477539,313.534760 559.494324,297.074524 
	C563.893799,289.043243 568.277222,281.000671 572.869019,273.079834 
	C573.654358,271.725189 575.431885,270.093323 576.788818,270.058533 
	C586.781067,269.802155 596.783081,269.896881 606.781311,269.967285 
	C607.458374,269.972076 608.130493,270.678711 608.543396,271.538879 
	C601.965942,278.064667 595.597595,284.057251 589.368408,290.191193 
	C587.657166,291.876251 586.362183,293.984039 584.641968,296.012146 
	C584.378906,296.446106 584.349976,296.765747 584.267822,297.353271 
	C584.129639,297.970703 584.044556,298.320282 583.959473,298.669861 
	C579.650024,306.124695 575.179504,313.491760 571.061768,321.050995 
	C559.056396,343.090057 547.197388,365.208862 535.260742,387.285431 
	C534.408630,388.861359 533.392029,390.348297 531.839050,392.872833 
	C514.852295,361.161896 498.273987,330.213470 481.402771,298.774811 
	C480.872131,298.129700 480.634399,297.974792 480.396698,297.819885 
	C480.333374,298.250763 480.270050,298.681641 480.206757,299.112518 
	C480.200928,299.520782 480.195068,299.929016 480.137451,300.991455 
	C480.128387,302.113251 480.171082,302.580872 480.213776,303.048462 
	C480.206055,360.970917 480.202545,418.893372 480.185730,476.815826 
	C480.183441,484.770203 480.152771,484.768646 472.311127,484.770416 
	C469.814484,484.770996 467.316284,484.842316 464.821442,484.778503 
	C453.229370,484.482086 454.797302,487.282898 454.395264,474.342438 
	C453.790863,454.886993 454.216461,435.399323 454.219543,415.925354 
	C454.222778,395.619202 454.244324,375.313019 454.409912,354.348938 
	C454.480103,353.098724 454.398193,352.506439 454.316284,351.914154 
z"/>
<path fill="#2D7EFF" opacity="1.000000" stroke="none" 
	d="
M584.876160,295.897888 
	C586.362183,293.984039 587.657166,291.876251 589.368408,290.191193 
	C595.597595,284.057251 601.965942,278.064667 608.624268,271.939331 
	C609.283691,273.961456 609.600769,276.063110 609.664978,278.911682 
	C609.277527,281.637939 609.026367,283.617279 609.025330,285.596710 
	C608.991333,351.682861 608.981140,417.769043 608.967468,483.855194 
	C601.300964,483.907166 593.634521,483.959167 585.447632,483.689575 
	C584.724792,482.884369 584.522400,482.400696 584.320007,481.917023 
	C584.310913,425.658630 584.305237,369.400208 584.286133,313.141815 
	C584.284546,308.648132 584.190247,304.154480 584.049316,299.165344 
	C584.044556,298.320282 584.129639,297.970703 584.448120,297.204346 
	C584.873718,296.518829 584.938599,296.222260 584.876160,295.897888 
z"/>
<path fill="#6076DA" opacity="1.000000" stroke="none" 
	d="
M609.395020,483.869080 
	C608.981140,417.769043 608.991333,351.682861 609.025330,285.596710 
	C609.026367,283.617279 609.277527,281.637939 609.671875,279.336670 
	C610.285645,280.519989 610.947998,282.025024 610.949036,283.530487 
	C610.994751,348.689484 610.990295,413.848480 610.927917,479.007446 
	C610.926331,480.632996 610.207092,482.257812 609.395020,483.869080 
z"/>
<path fill="#FA9437" opacity="1.000000" stroke="none" 
	d="
M480.478058,299.026245 
	C480.270050,298.681641 480.333374,298.250763 480.396698,297.819885 
	C480.634399,297.974792 480.872131,298.129700 481.190155,298.497528 
	C481.096771,298.786957 480.923065,298.863464 480.478058,299.026245 
z"/>
<path fill="#FA9437" opacity="1.000000" stroke="none" 
	d="
M480.357330,302.860168 
	C480.171082,302.580872 480.128387,302.113251 480.148315,301.297546 
	C480.307617,301.523590 480.404266,302.097717 480.357330,302.860168 
z"/>
<path fill="#FAA92F" opacity="1.000000" stroke="none" 
	d="
M454.235596,352.271606 
	C454.398193,352.506439 454.480103,353.098724 454.424133,353.886078 
	C454.242462,353.597107 454.198669,353.113098 454.235596,352.271606 
z"/>
<path fill="#7B77C0" opacity="1.000000" stroke="none" 
	d="
M584.207520,482.219971 
	C584.522400,482.400696 584.724792,482.884369 584.984924,483.630829 
	C584.726746,483.436737 584.410889,482.979858 584.207520,482.219971 
z"/>
<path fill="#FC823E" opacity="1.000000" stroke="none" 
	d="
M610.484558,269.484650 
	C610.508972,269.474823 610.460144,269.494476 610.484558,269.484650 
z"/>
<path fill="#7B77C0" opacity="1.000000" stroke="none" 
	d="
M584.641968,296.012146 
	C584.938599,296.222260 584.873718,296.518829 584.501221,296.936462 
	C584.349976,296.765747 584.378906,296.446106 584.641968,296.012146 
z"/>
</svg>